<mxfile host="Electron" agent="Mozilla/5.0 (Windows NT 10.0; Win64; x64) AppleWebKit/537.36 (KHTML, like Gecko) draw.io/24.7.17 Chrome/128.0.6613.36 Electron/32.0.1 Safari/537.36" version="24.7.17">
  <diagram name="Page-1" id="PlQ6TVb-pdEng3CEIPE-">
    <mxGraphModel dx="1102" dy="570" grid="1" gridSize="10" guides="1" tooltips="1" connect="1" arrows="1" fold="1" page="1" pageScale="1" pageWidth="850" pageHeight="1100" math="0" shadow="0">
      <root>
        <mxCell id="0" />
        <mxCell id="1" parent="0" />
        <mxCell id="Hje3cE1wD51aT8N_RcjS-1" value="Store" style="rounded=1;arcSize=10;whiteSpace=wrap;html=1;align=center;" parent="1" vertex="1">
          <mxGeometry x="369.5" y="310" width="100" height="40" as="geometry" />
        </mxCell>
        <mxCell id="Hje3cE1wD51aT8N_RcjS-2" value="" style="endArrow=none;html=1;rounded=0;" parent="1" source="Hje3cE1wD51aT8N_RcjS-4" target="Hje3cE1wD51aT8N_RcjS-1" edge="1">
          <mxGeometry relative="1" as="geometry">
            <mxPoint x="336.084482455587" y="76.93878528143614" as="sourcePoint" />
            <mxPoint x="474.5" y="180" as="targetPoint" />
          </mxGeometry>
        </mxCell>
        <mxCell id="Hje3cE1wD51aT8N_RcjS-3" value="" style="endArrow=none;html=1;rounded=0;" parent="1" source="Hje3cE1wD51aT8N_RcjS-5" target="Hje3cE1wD51aT8N_RcjS-1" edge="1">
          <mxGeometry relative="1" as="geometry">
            <mxPoint x="419.5" y="80" as="sourcePoint" />
            <mxPoint x="384.5" y="150" as="targetPoint" />
          </mxGeometry>
        </mxCell>
        <mxCell id="Hje3cE1wD51aT8N_RcjS-4" value="News" style="ellipse;shape=doubleEllipse;margin=3;whiteSpace=wrap;html=1;align=center;" parent="1" vertex="1">
          <mxGeometry x="279.5" y="70" width="100" height="40" as="geometry" />
        </mxCell>
        <mxCell id="Hje3cE1wD51aT8N_RcjS-5" value="ContactUs" style="ellipse;shape=doubleEllipse;margin=3;whiteSpace=wrap;html=1;align=center;" parent="1" vertex="1">
          <mxGeometry x="369.5" y="40" width="100" height="40" as="geometry" />
        </mxCell>
        <mxCell id="Hje3cE1wD51aT8N_RcjS-6" value="Blog" style="ellipse;shape=doubleEllipse;margin=3;whiteSpace=wrap;html=1;align=center;" parent="1" vertex="1">
          <mxGeometry x="459.5" y="70" width="100" height="40" as="geometry" />
        </mxCell>
        <mxCell id="Hje3cE1wD51aT8N_RcjS-7" value="" style="endArrow=none;html=1;rounded=0;" parent="1" source="Hje3cE1wD51aT8N_RcjS-6" target="Hje3cE1wD51aT8N_RcjS-1" edge="1">
          <mxGeometry relative="1" as="geometry">
            <mxPoint x="554.5" y="130" as="sourcePoint" />
            <mxPoint x="714.5" y="130" as="targetPoint" />
          </mxGeometry>
        </mxCell>
        <mxCell id="Hje3cE1wD51aT8N_RcjS-8" value="Course" style="ellipse;shape=doubleEllipse;margin=3;whiteSpace=wrap;html=1;align=center;" parent="1" vertex="1">
          <mxGeometry x="209.5" y="110" width="100" height="40" as="geometry" />
        </mxCell>
        <mxCell id="Hje3cE1wD51aT8N_RcjS-9" value="" style="endArrow=none;html=1;rounded=0;" parent="1" source="Hje3cE1wD51aT8N_RcjS-8" target="Hje3cE1wD51aT8N_RcjS-1" edge="1">
          <mxGeometry relative="1" as="geometry">
            <mxPoint x="254.5" y="140" as="sourcePoint" />
            <mxPoint x="414.5" y="140" as="targetPoint" />
          </mxGeometry>
        </mxCell>
        <mxCell id="Hje3cE1wD51aT8N_RcjS-10" value="Banner" style="ellipse;shape=doubleEllipse;margin=3;whiteSpace=wrap;html=1;align=center;" parent="1" vertex="1">
          <mxGeometry x="524.5" y="110" width="100" height="40" as="geometry" />
        </mxCell>
        <mxCell id="Hje3cE1wD51aT8N_RcjS-11" value="" style="endArrow=none;html=1;rounded=0;" parent="1" source="Hje3cE1wD51aT8N_RcjS-10" target="Hje3cE1wD51aT8N_RcjS-1" edge="1">
          <mxGeometry relative="1" as="geometry">
            <mxPoint x="504.5" y="160" as="sourcePoint" />
            <mxPoint x="664.5" y="160" as="targetPoint" />
          </mxGeometry>
        </mxCell>
        <mxCell id="Hje3cE1wD51aT8N_RcjS-12" value="Info" style="ellipse;shape=doubleEllipse;margin=3;whiteSpace=wrap;html=1;align=center;" parent="1" vertex="1">
          <mxGeometry x="579.5" y="150" width="110.5" height="40" as="geometry" />
        </mxCell>
        <mxCell id="Hje3cE1wD51aT8N_RcjS-13" value="" style="endArrow=none;html=1;rounded=0;" parent="1" source="Hje3cE1wD51aT8N_RcjS-1" target="Hje3cE1wD51aT8N_RcjS-12" edge="1">
          <mxGeometry relative="1" as="geometry">
            <mxPoint x="564.5" y="180" as="sourcePoint" />
            <mxPoint x="724.5" y="180" as="targetPoint" />
          </mxGeometry>
        </mxCell>
        <mxCell id="Hje3cE1wD51aT8N_RcjS-14" value="Festival" style="ellipse;whiteSpace=wrap;html=1;align=center;" parent="1" vertex="1">
          <mxGeometry x="164.5" y="155" width="100" height="40" as="geometry" />
        </mxCell>
        <mxCell id="Hje3cE1wD51aT8N_RcjS-15" value="" style="endArrow=none;html=1;rounded=0;" parent="1" source="Hje3cE1wD51aT8N_RcjS-14" target="Hje3cE1wD51aT8N_RcjS-1" edge="1">
          <mxGeometry relative="1" as="geometry">
            <mxPoint x="324.5" y="270" as="sourcePoint" />
            <mxPoint x="484.5" y="270" as="targetPoint" />
          </mxGeometry>
        </mxCell>
        <mxCell id="Hje3cE1wD51aT8N_RcjS-16" value="Notification" style="ellipse;shape=doubleEllipse;margin=3;whiteSpace=wrap;html=1;align=center;" parent="1" vertex="1">
          <mxGeometry x="117.5" y="200" width="100" height="40" as="geometry" />
        </mxCell>
        <mxCell id="Hje3cE1wD51aT8N_RcjS-17" value="" style="endArrow=none;html=1;rounded=0;" parent="1" source="Hje3cE1wD51aT8N_RcjS-16" target="Hje3cE1wD51aT8N_RcjS-1" edge="1">
          <mxGeometry relative="1" as="geometry">
            <mxPoint x="284.5" y="300" as="sourcePoint" />
            <mxPoint x="444.5" y="300" as="targetPoint" />
          </mxGeometry>
        </mxCell>
        <mxCell id="Hje3cE1wD51aT8N_RcjS-20" value="Coupon" style="ellipse;shape=doubleEllipse;margin=3;whiteSpace=wrap;html=1;align=center;" parent="1" vertex="1">
          <mxGeometry x="80" y="250" width="100" height="40" as="geometry" />
        </mxCell>
        <mxCell id="Hje3cE1wD51aT8N_RcjS-21" value="" style="endArrow=none;html=1;rounded=0;" parent="1" source="Hje3cE1wD51aT8N_RcjS-1" target="Hje3cE1wD51aT8N_RcjS-20" edge="1">
          <mxGeometry relative="1" as="geometry">
            <mxPoint x="515" y="370" as="sourcePoint" />
            <mxPoint x="675" y="370" as="targetPoint" />
          </mxGeometry>
        </mxCell>
        <mxCell id="vpMjZ6FnjTt7iypHFWLj-1" value="User" style="ellipse;shape=doubleEllipse;margin=3;whiteSpace=wrap;html=1;align=center;" parent="1" vertex="1">
          <mxGeometry x="620" y="195" width="100" height="40" as="geometry" />
        </mxCell>
        <mxCell id="vpMjZ6FnjTt7iypHFWLj-2" value="" style="endArrow=none;html=1;rounded=0;" parent="1" source="Hje3cE1wD51aT8N_RcjS-1" target="vpMjZ6FnjTt7iypHFWLj-1" edge="1">
          <mxGeometry relative="1" as="geometry">
            <mxPoint x="580" y="360" as="sourcePoint" />
            <mxPoint x="740" y="360" as="targetPoint" />
          </mxGeometry>
        </mxCell>
        <mxCell id="IvV10JOh4i759elpmDt0-1" value="Subscriber" style="ellipse;shape=doubleEllipse;margin=3;whiteSpace=wrap;html=1;align=center;" vertex="1" parent="1">
          <mxGeometry x="640" y="240" width="100" height="40" as="geometry" />
        </mxCell>
        <mxCell id="IvV10JOh4i759elpmDt0-2" value="" style="endArrow=none;html=1;rounded=0;" edge="1" parent="1" source="Hje3cE1wD51aT8N_RcjS-1" target="IvV10JOh4i759elpmDt0-1">
          <mxGeometry width="50" height="50" relative="1" as="geometry">
            <mxPoint x="590" y="390" as="sourcePoint" />
            <mxPoint x="640" y="340" as="targetPoint" />
          </mxGeometry>
        </mxCell>
      </root>
    </mxGraphModel>
  </diagram>
</mxfile>
